# Blender 4.2.1 LTS
# www.blender.org
mtllib base_lampshade.mtl
o Plane.002
v -0.705146 0.433491 0.673458
v -0.703642 0.413491 0.673458
v -0.703642 0.433491 0.675643
v -0.647203 0.433491 0.675643
v -0.647203 0.413491 0.673458
v -0.645699 0.433491 0.673458
v -0.705146 0.433491 0.615861
v -0.703642 0.433491 0.613675
v -0.703642 0.413491 0.615861
v -0.645699 0.433491 0.615861
v -0.647203 0.413491 0.615861
v -0.647203 0.433491 0.613675
v -0.705146 0.527862 0.615861
v -0.703642 0.547862 0.615861
v -0.703642 0.527862 0.613675
v -0.705146 0.527862 0.673458
v -0.703642 0.527862 0.675643
v -0.703642 0.547862 0.673458
v -0.647203 0.527862 0.675643
v -0.645699 0.527862 0.673458
v -0.647203 0.547862 0.673458
v -0.645699 0.527862 0.615861
v -0.647203 0.527862 0.613675
v -0.647203 0.547862 0.615861
vn -0.0000 -0.0000 1.0000
vn 1.0000 -0.0000 -0.0000
vn -0.0000 -0.0000 -1.0000
vn -0.0000 -1.0000 -0.0000
vn -0.0000 1.0000 -0.0000
vn -0.8221 -0.0618 0.5659
vn 0.8221 -0.0618 0.5659
vn -0.8221 -0.0618 -0.5659
vn 0.8221 -0.0618 -0.5659
vn -0.8221 0.0618 -0.5659
vn -0.8221 0.0618 0.5659
vn 0.8221 0.0618 0.5659
vn 0.8221 0.0618 -0.5659
vn -0.9972 -0.0750 -0.0000
vn -0.0000 -0.1086 0.9941
vn 0.9972 -0.0750 -0.0000
vn -0.0000 -0.1086 -0.9941
vn -0.9972 0.0750 -0.0000
vn -0.0000 0.1086 0.9941
vn 0.9972 0.0750 -0.0000
vn -0.0000 0.1086 -0.9941
vn 0.8237 -0.0000 0.5670
vn -0.8237 -0.0000 0.5670
vn 0.8237 -0.0000 -0.5670
vn -0.8237 -0.0000 -0.5670
vn -1.0000 -0.0000 -0.0000
vt 0.025307 0.000000
vt 0.974693 0.000000
vt 1.000000 0.035269
vt 1.000000 0.964731
vt 1.000000 0.964731
vt 0.974693 1.000000
vt 0.025307 1.000000
vt 0.025307 0.035269
vt 0.025307 0.964731
vt 0.974693 0.964731
vt 0.974692 0.035269
vt 0.025307 0.964731
vt 0.000000 0.035269
vt 0.000000 0.964731
s 0
f 3/1/1 4/2/1 19/2/1 17/1/1
f 6/3/2 10/4/2 22/5/2 20/3/2
f 12/6/3 8/7/3 15/7/3 23/6/3
f 2/8/4 9/9/4 11/10/4 5/11/4
f 18/8/5 21/11/5 24/10/5 14/12/5
f 1/13/6 2/8/6 3/1/6
f 4/2/7 5/11/7 6/3/7
f 7/14/8 8/7/8 9/9/8
f 10/4/9 11/10/9 12/6/9
f 13/14/10 14/12/10 15/7/10
f 16/13/11 17/1/11 18/8/11
f 19/2/12 20/3/12 21/11/12
f 22/5/13 23/6/13 24/10/13
f 9/9/14 2/8/14 1/13/14 7/14/14
f 2/8/15 5/11/15 4/2/15 3/1/15
f 5/11/16 11/10/16 10/4/16 6/3/16
f 11/10/17 9/9/17 8/7/17 12/6/17
f 13/14/18 16/13/18 18/8/18 14/12/18
f 17/1/19 19/2/19 21/11/19 18/8/19
f 20/3/20 22/5/20 24/10/20 21/11/20
f 23/6/21 15/7/21 14/12/21 24/10/21
f 6/3/22 20/3/22 19/2/22 4/2/22
f 16/13/23 1/13/23 3/1/23 17/1/23
f 12/6/24 23/6/24 22/5/24 10/4/24
f 15/7/25 8/7/25 7/14/25 13/14/25
f 7/14/26 1/13/26 16/13/26 13/14/26
