# Blender 4.2.1 LTS
# www.blender.org
mtllib grass.mtl
o grass
v 1.700111 0.378815 0.572748
v 1.701498 0.368740 0.572748
v 1.701498 0.378815 0.582811
v 1.974095 0.378815 0.582811
v 1.974095 0.368740 0.572748
v 1.975482 0.378815 0.572748
v 1.700111 0.378815 -1.404608
v 1.701498 0.378815 -1.414671
v 1.701498 0.368740 -1.404608
v 1.975482 0.378815 -1.404608
v 1.974095 0.368740 -1.404608
v 1.974095 0.378815 -1.414671
v 1.700111 0.378815 -1.404608
v 1.701498 0.388890 -1.404608
v 1.701498 0.378815 -1.414671
v 1.700111 0.378815 0.572748
v 1.701498 0.378815 0.582811
v 1.701498 0.388890 0.572748
v 1.974095 0.378815 0.582811
v 1.975482 0.378815 0.572748
v 1.974095 0.388890 0.572748
v 1.975482 0.378815 -1.404608
v 1.974095 0.378815 -1.414671
v 1.974095 0.388890 -1.404608
vn -0.0000 -0.0000 -1.0000
vn -1.0000 -0.0000 -0.0000
vn -0.0000 -0.0000 1.0000
vn -0.0000 -1.0000 -0.0000
vn -0.0000 1.0000 -0.0000
vn -0.9815 -0.1351 0.1353
vn 0.9815 -0.1351 0.1353
vn -0.9815 -0.1351 -0.1353
vn 0.9815 -0.1351 -0.1353
vn -0.9815 0.1351 -0.1353
vn -0.9815 0.1351 0.1353
vn 0.9815 0.1351 0.1353
vn 0.9815 0.1351 -0.1353
vn -0.9907 -0.1364 -0.0000
vn -0.0000 -0.7067 0.7076
vn 0.9907 -0.1364 -0.0000
vn -0.0000 -0.7067 -0.7076
vn -0.9907 0.1364 -0.0000
vn -0.0000 0.7067 0.7076
vn 0.9907 0.1364 -0.0000
vn -0.0000 0.7067 -0.7076
vn -0.9930 -0.0000 -0.1177
vn 0.9930 -0.0000 -0.1177
vn -0.9930 -0.0000 0.1177
vn 0.9930 -0.0000 0.1177
vn 1.0000 -0.0000 -0.0000
vt 0.005037 0.000000
vt 0.994963 0.000000
vt 1.000000 0.005037
vt 1.000000 0.994963
vt 1.000000 0.005037
vt 0.994962 1.000000
vt 0.005037 1.000000
vt 0.994962 1.000000
vt 0.005037 0.005037
vt 0.005037 0.994963
vt 0.994963 0.994963
vt 0.994963 0.005037
vt 0.000000 0.005037
vt 0.000000 0.994962
s 0
f 3/1/1 4/2/1 19/2/1 17/1/1
f 6/3/2 10/4/2 22/4/2 20/5/2
f 12/6/3 8/7/3 15/7/3 23/8/3
f 2/9/4 9/10/4 11/11/4 5/12/4
f 18/9/5 21/12/5 24/11/5 14/10/5
f 1/13/6 2/9/6 3/1/6
f 4/2/7 5/12/7 6/3/7
f 7/14/8 8/7/8 9/10/8
f 10/4/9 11/11/9 12/6/9
f 13/14/10 14/10/10 15/7/10
f 16/13/11 17/1/11 18/9/11
f 19/2/12 20/5/12 21/12/12
f 22/4/13 23/8/13 24/11/13
f 9/10/14 2/9/14 1/13/14 7/14/14
f 2/9/15 5/12/15 4/2/15 3/1/15
f 5/12/16 11/11/16 10/4/16 6/3/16
f 11/11/17 9/10/17 8/7/17 12/6/17
f 13/14/18 16/13/18 18/9/18 14/10/18
f 17/1/19 19/2/19 21/12/19 18/9/19
f 20/5/20 22/4/20 24/11/20 21/12/20
f 23/8/21 15/7/21 14/10/21 24/11/21
f 6/3/22 20/5/22 19/2/22 4/2/22
f 16/13/23 1/13/23 3/1/23 17/1/23
f 12/6/24 23/8/24 22/4/24 10/4/24
f 15/7/25 8/7/25 7/14/25 13/14/25
f 7/14/26 1/13/26 16/13/26 13/14/26
o grass.001
v -1.947816 0.378815 0.572748
v -1.939197 0.368740 0.572748
v -1.939197 0.378815 0.582811
v -0.245430 0.378815 0.582811
v -0.245430 0.368740 0.572748
v -0.236811 0.378815 0.572748
v -1.947816 0.378815 -1.404608
v -1.939197 0.378815 -1.414671
v -1.939197 0.368740 -1.404608
v -0.236811 0.378815 -1.404608
v -0.245430 0.368740 -1.404608
v -0.245430 0.378815 -1.414671
v -1.947816 0.378815 -1.404608
v -1.939197 0.388890 -1.404608
v -1.939197 0.378815 -1.414671
v -1.947816 0.378815 0.572748
v -1.939197 0.378815 0.582811
v -1.939197 0.388890 0.572748
v -0.245430 0.378815 0.582811
v -0.236811 0.378815 0.572748
v -0.245430 0.388890 0.572748
v -0.236811 0.378815 -1.404608
v -0.245430 0.378815 -1.414671
v -0.245430 0.388890 -1.404608
vn -0.0000 -0.0000 -1.0000
vn -1.0000 -0.0000 -0.0000
vn -0.0000 -0.0000 1.0000
vn -0.0000 -1.0000 -0.0000
vn -0.0000 1.0000 -0.0000
vn -0.6368 -0.5448 0.5455
vn 0.6368 -0.5448 0.5455
vn -0.6368 -0.5448 -0.5455
vn 0.6368 -0.5448 -0.5455
vn -0.6368 0.5448 -0.5455
vn -0.6368 0.5448 0.5455
vn 0.6368 0.5448 0.5455
vn 0.6368 0.5448 -0.5455
vn -0.7599 -0.6501 -0.0000
vn -0.0000 -0.7067 0.7076
vn 0.7599 -0.6501 -0.0000
vn -0.0000 -0.7067 -0.7076
vn -0.7599 0.6501 -0.0000
vn -0.0000 0.7067 0.7076
vn 0.7599 0.6501 -0.0000
vn -0.0000 0.7067 -0.7076
vn -0.8052 -0.0000 -0.5930
vn 0.8052 -0.0000 -0.5930
vn -0.8052 -0.0000 0.5930
vn 0.8052 -0.0000 0.5930
vn 1.0000 -0.0000 -0.0000
vt 0.005037 0.000000
vt 0.994963 0.000000
vt 1.000000 0.005037
vt 1.000000 0.994963
vt 1.000000 0.005037
vt 0.994962 1.000000
vt 0.005037 1.000000
vt 0.994962 1.000000
vt 0.005037 0.005037
vt 0.005037 0.994963
vt 0.994963 0.994963
vt 0.994963 0.005037
vt 0.000000 0.005037
vt 0.000000 0.994962
s 0
f 27/15/27 28/16/27 43/16/27 41/15/27
f 30/17/28 34/18/28 46/18/28 44/19/28
f 36/20/29 32/21/29 39/21/29 47/22/29
f 26/23/30 33/24/30 35/25/30 29/26/30
f 42/23/31 45/26/31 48/25/31 38/24/31
f 25/27/32 26/23/32 27/15/32
f 28/16/33 29/26/33 30/17/33
f 31/28/34 32/21/34 33/24/34
f 34/18/35 35/25/35 36/20/35
f 37/28/36 38/24/36 39/21/36
f 40/27/37 41/15/37 42/23/37
f 43/16/38 44/19/38 45/26/38
f 46/18/39 47/22/39 48/25/39
f 33/24/40 26/23/40 25/27/40 31/28/40
f 26/23/41 29/26/41 28/16/41 27/15/41
f 29/26/42 35/25/42 34/18/42 30/17/42
f 35/25/43 33/24/43 32/21/43 36/20/43
f 37/28/44 40/27/44 42/23/44 38/24/44
f 41/15/45 43/16/45 45/26/45 42/23/45
f 44/19/46 46/18/46 48/25/46 45/26/46
f 47/22/47 39/21/47 38/24/47 48/25/47
f 30/17/48 44/19/48 43/16/48 28/16/48
f 40/27/49 25/27/49 27/15/49 41/15/49
f 36/20/50 47/22/50 46/18/50 34/18/50
f 39/21/51 32/21/51 31/28/51 37/28/51
f 31/28/52 25/27/52 40/27/52 37/28/52
o grass.002
v 0.410980 0.378815 0.253193
v 0.417477 0.368740 0.253193
v 0.417477 0.378815 0.260006
v 1.694175 0.378815 0.260006
v 1.694175 0.368740 0.253193
v 1.700672 0.378815 0.253193
v 0.410980 0.378815 -1.085611
v 0.417477 0.378815 -1.092423
v 0.417477 0.368740 -1.085611
v 1.700672 0.378815 -1.085611
v 1.694175 0.368740 -1.085611
v 1.694175 0.378815 -1.092423
v 0.410980 0.378815 -1.085611
v 0.417477 0.388890 -1.085611
v 0.417477 0.378815 -1.092423
v 0.410980 0.378815 0.253193
v 0.417477 0.378815 0.260006
v 0.417477 0.388890 0.253193
v 1.694175 0.378815 0.260006
v 1.700672 0.378815 0.253193
v 1.694175 0.388890 0.253193
v 1.700672 0.378815 -1.085611
v 1.694175 0.378815 -1.092423
v 1.694175 0.388890 -1.085611
vn -0.0000 -0.0000 -1.0000
vn -1.0000 -0.0000 -0.0000
vn -0.0000 -0.0000 1.0000
vn -0.0000 -1.0000 -0.0000
vn -0.0000 1.0000 -0.0000
vn -0.6558 -0.4229 0.6254
vn 0.6558 -0.4229 0.6254
vn -0.6558 -0.4229 -0.6254
vn 0.6558 -0.4229 -0.6254
vn -0.6558 0.4229 -0.6254
vn -0.6558 0.4229 0.6254
vn 0.6558 0.4229 0.6254
vn 0.6558 0.4229 -0.6254
vn -0.8404 -0.5419 -0.0000
vn -0.0000 -0.5602 0.8284
vn 0.8404 -0.5419 -0.0000
vn -0.0000 -0.5602 -0.8284
vn -0.8404 0.5419 -0.0000
vn -0.0000 0.5602 0.8284
vn 0.8404 0.5419 -0.0000
vn -0.0000 0.5602 -0.8284
vn -0.7733 -0.0000 -0.6340
vn 0.7733 -0.0000 -0.6340
vn -0.7733 -0.0000 0.6340
vn 0.7733 -0.0000 0.6340
vn 1.0000 -0.0000 -0.0000
vt 0.005037 0.000000
vt 0.994963 0.000000
vt 1.000000 0.005037
vt 1.000000 0.994963
vt 1.000000 0.005037
vt 0.994962 1.000000
vt 0.005037 1.000000
vt 0.994962 1.000000
vt 0.005037 0.005037
vt 0.005037 0.994963
vt 0.994963 0.994963
vt 0.994963 0.005037
vt 0.000000 0.005037
vt 0.000000 0.994962
s 0
f 51/29/53 52/30/53 67/30/53 65/29/53
f 54/31/54 58/32/54 70/32/54 68/33/54
f 60/34/55 56/35/55 63/35/55 71/36/55
f 50/37/56 57/38/56 59/39/56 53/40/56
f 66/37/57 69/40/57 72/39/57 62/38/57
f 49/41/58 50/37/58 51/29/58
f 52/30/59 53/40/59 54/31/59
f 55/42/60 56/35/60 57/38/60
f 58/32/61 59/39/61 60/34/61
f 61/42/62 62/38/62 63/35/62
f 64/41/63 65/29/63 66/37/63
f 67/30/64 68/33/64 69/40/64
f 70/32/65 71/36/65 72/39/65
f 57/38/66 50/37/66 49/41/66 55/42/66
f 50/37/67 53/40/67 52/30/67 51/29/67
f 53/40/68 59/39/68 58/32/68 54/31/68
f 59/39/69 57/38/69 56/35/69 60/34/69
f 61/42/70 64/41/70 66/37/70 62/38/70
f 65/29/71 67/30/71 69/40/71 66/37/71
f 68/33/72 70/32/72 72/39/72 69/40/72
f 71/36/73 63/35/73 62/38/73 72/39/73
f 54/31/74 68/33/74 67/30/74 52/30/74
f 64/41/75 49/41/75 51/29/75 65/29/75
f 60/34/76 71/36/76 70/32/76 58/32/76
f 63/35/77 56/35/77 55/42/77 61/42/77
f 55/42/78 49/41/78 64/41/78 61/42/78
o grass.003
v 0.404045 0.583069 -1.381613
v 0.410542 0.572994 -1.381613
v 0.410542 0.583069 -1.380230
v 1.687240 0.583069 -1.380230
v 1.687240 0.572994 -1.381613
v 1.693737 0.583069 -1.381613
v 0.404045 0.583069 -1.653410
v 0.410542 0.583069 -1.654793
v 0.410542 0.572994 -1.653410
v 1.693737 0.583069 -1.653410
v 1.687240 0.572994 -1.653410
v 1.687240 0.583069 -1.654793
v 0.404045 0.583069 -1.653410
v 0.410542 0.593144 -1.653410
v 0.410542 0.583069 -1.654793
v 0.404045 0.583069 -1.381613
v 0.410542 0.583069 -1.380230
v 0.410542 0.593144 -1.381613
v 1.687240 0.583069 -1.380230
v 1.693737 0.583069 -1.381613
v 1.687240 0.593144 -1.381613
v 1.693737 0.583069 -1.653410
v 1.687240 0.583069 -1.654793
v 1.687240 0.593144 -1.653410
vn -0.0000 -0.0000 -1.0000
vn -1.0000 -0.0000 -0.0000
vn -0.0000 -0.0000 1.0000
vn -0.0000 -1.0000 -0.0000
vn -0.0000 1.0000 -0.0000
vn -0.2064 -0.1331 0.9694
vn 0.2064 -0.1331 0.9694
vn -0.2064 -0.1331 -0.9694
vn 0.2064 -0.1331 -0.9694
vn -0.2064 0.1331 -0.9694
vn -0.2064 0.1331 0.9694
vn 0.2064 0.1331 0.9694
vn 0.2064 0.1331 -0.9694
vn -0.8404 -0.5419 -0.0000
vn -0.0000 -0.1360 0.9907
vn 0.8404 -0.5419 -0.0000
vn -0.0000 -0.1360 -0.9907
vn -0.8404 0.5419 -0.0000
vn -0.0000 0.1360 0.9907
vn 0.8404 0.5419 -0.0000
vn -0.0000 0.1360 -0.9907
vn -0.2404 -0.0000 -0.9707
vn 0.2404 -0.0000 -0.9707
vn -0.2404 -0.0000 0.9707
vn 0.2404 -0.0000 0.9707
vn 1.0000 -0.0000 -0.0000
vt 0.005037 0.000000
vt 0.994963 0.000000
vt 1.000000 0.005037
vt 1.000000 0.994963
vt 1.000000 0.005037
vt 0.994962 1.000000
vt 0.005037 1.000000
vt 0.994962 1.000000
vt 0.005037 0.005037
vt 0.005037 0.994963
vt 0.994963 0.994963
vt 0.994963 0.005037
vt 0.000000 0.005037
vt 0.000000 0.994962
s 0
f 75/43/79 76/44/79 91/44/79 89/43/79
f 78/45/80 82/46/80 94/46/80 92/47/80
f 84/48/81 80/49/81 87/49/81 95/50/81
f 74/51/82 81/52/82 83/53/82 77/54/82
f 90/51/83 93/54/83 96/53/83 86/52/83
f 73/55/84 74/51/84 75/43/84
f 76/44/85 77/54/85 78/45/85
f 79/56/86 80/49/86 81/52/86
f 82/46/87 83/53/87 84/48/87
f 85/56/88 86/52/88 87/49/88
f 88/55/89 89/43/89 90/51/89
f 91/44/90 92/47/90 93/54/90
f 94/46/91 95/50/91 96/53/91
f 81/52/92 74/51/92 73/55/92 79/56/92
f 74/51/93 77/54/93 76/44/93 75/43/93
f 77/54/94 83/53/94 82/46/94 78/45/94
f 83/53/95 81/52/95 80/49/95 84/48/95
f 85/56/96 88/55/96 90/51/96 86/52/96
f 89/43/97 91/44/97 93/54/97 90/51/97
f 92/47/98 94/46/98 96/53/98 93/54/98
f 95/50/99 87/49/99 86/52/99 96/53/99
f 78/45/100 92/47/100 91/44/100 76/44/100
f 88/55/101 73/55/101 75/43/101 89/43/101
f 84/48/102 95/50/102 94/46/102 82/46/102
f 87/49/103 80/49/103 79/56/103 85/56/103
f 79/56/104 73/55/104 88/55/104 85/56/104
o grass.004
v -1.127795 0.695153 -0.064331
v -1.126186 0.685078 -0.064331
v -1.126186 0.695153 -0.058844
v -0.810057 0.695153 -0.058844
v -0.810057 0.685078 -0.064331
v -0.808448 0.695153 -0.064331
v -1.127795 0.695153 -1.142483
v -1.126186 0.695153 -1.147970
v -1.126186 0.685078 -1.142483
v -0.808448 0.695153 -1.142483
v -0.810057 0.685078 -1.142483
v -0.810057 0.695153 -1.147970
v -1.127795 0.695153 -1.142483
v -1.126186 0.705227 -1.142483
v -1.126186 0.695153 -1.147970
v -1.127795 0.695153 -0.064331
v -1.126186 0.695153 -0.058844
v -1.126186 0.705227 -0.064331
v -0.810057 0.695153 -0.058844
v -0.808448 0.695153 -0.064331
v -0.810057 0.705227 -0.064331
v -0.808448 0.695153 -1.142483
v -0.810057 0.695153 -1.147970
v -0.810057 0.705227 -1.142483
vn -0.0000 -0.0000 -1.0000
vn -1.0000 -0.0000 -0.0000
vn -0.0000 -0.0000 1.0000
vn -0.0000 -1.0000 -0.0000
vn -0.0000 1.0000 -0.0000
vn -0.9485 -0.1515 0.2781
vn 0.9485 -0.1515 0.2781
vn -0.9485 -0.1515 -0.2781
vn 0.9485 -0.1515 -0.2781
vn -0.9485 0.1515 -0.2781
vn -0.9485 0.1515 0.2781
vn 0.9485 0.1515 0.2781
vn 0.9485 0.1515 -0.2781
vn -0.9875 -0.1577 -0.0000
vn -0.0000 -0.4782 0.8782
vn 0.9875 -0.1577 -0.0000
vn -0.0000 -0.4782 -0.8782
vn -0.9875 0.1577 -0.0000
vn -0.0000 0.4782 0.8782
vn 0.9875 0.1577 -0.0000
vn -0.0000 0.4782 -0.8782
vn -0.9697 -0.0000 -0.2444
vn 0.9697 -0.0000 -0.2444
vn -0.9697 -0.0000 0.2444
vn 0.9697 -0.0000 0.2444
vn 1.0000 -0.0000 -0.0000
vt 0.005037 0.000000
vt 0.994963 0.000000
vt 1.000000 0.005037
vt 1.000000 0.994963
vt 1.000000 0.005037
vt 0.994962 1.000000
vt 0.005037 1.000000
vt 0.994962 1.000000
vt 0.005037 0.005037
vt 0.005037 0.994963
vt 0.994963 0.994963
vt 0.994963 0.005037
vt 0.000000 0.005037
vt 0.000000 0.994962
s 0
f 99/57/105 100/58/105 115/58/105 113/57/105
f 102/59/106 106/60/106 118/60/106 116/61/106
f 108/62/107 104/63/107 111/63/107 119/64/107
f 98/65/108 105/66/108 107/67/108 101/68/108
f 114/65/109 117/68/109 120/67/109 110/66/109
f 97/69/110 98/65/110 99/57/110
f 100/58/111 101/68/111 102/59/111
f 103/70/112 104/63/112 105/66/112
f 106/60/113 107/67/113 108/62/113
f 109/70/114 110/66/114 111/63/114
f 112/69/115 113/57/115 114/65/115
f 115/58/116 116/61/116 117/68/116
f 118/60/117 119/64/117 120/67/117
f 105/66/118 98/65/118 97/69/118 103/70/118
f 98/65/119 101/68/119 100/58/119 99/57/119
f 101/68/120 107/67/120 106/60/120 102/59/120
f 107/67/121 105/66/121 104/63/121 108/62/121
f 109/70/122 112/69/122 114/65/122 110/66/122
f 113/57/123 115/58/123 117/68/123 114/65/123
f 116/61/124 118/60/124 120/67/124 117/68/124
f 119/64/125 111/63/125 110/66/125 120/67/125
f 102/59/126 116/61/126 115/58/126 100/58/126
f 112/69/127 97/69/127 99/57/127 113/57/127
f 108/62/128 119/64/128 118/60/128 106/60/128
f 111/63/129 104/63/129 103/70/129 109/70/129
f 103/70/130 97/69/130 112/69/130 109/70/130
o grass.005
v -1.925512 0.999803 -0.289636
v -1.921489 0.989728 -0.289636
v -1.921489 0.999803 -0.284080
v -1.131025 0.999803 -0.284080
v -1.131025 0.989728 -0.289636
v -1.127003 0.999803 -0.289636
v -1.925512 0.999803 -1.381431
v -1.921489 0.999803 -1.386986
v -1.921489 0.989728 -1.381431
v -1.127003 0.999803 -1.381431
v -1.131025 0.989728 -1.381431
v -1.131025 0.999803 -1.386986
v -1.925512 0.999803 -1.381431
v -1.921489 1.009877 -1.381431
v -1.921489 0.999803 -1.386986
v -1.925512 0.999803 -0.289636
v -1.921489 0.999803 -0.284080
v -1.921489 1.009877 -0.289636
v -1.131025 0.999803 -0.284080
v -1.127003 0.999803 -0.289636
v -1.131025 1.009877 -0.289636
v -1.127003 0.999803 -1.381431
v -1.131025 0.999803 -1.386986
v -1.131025 1.009877 -1.381431
vn -0.0000 -0.0000 -1.0000
vn -1.0000 -0.0000 -0.0000
vn -0.0000 -0.0000 1.0000
vn -0.0000 -1.0000 -0.0000
vn -0.0000 1.0000 -0.0000
vn -0.7707 -0.3077 0.5580
vn 0.7707 -0.3077 0.5580
vn -0.7707 -0.3077 -0.5580
vn 0.7707 -0.3077 -0.5580
vn -0.7707 0.3077 -0.5580
vn -0.7707 0.3077 0.5580
vn 0.7707 0.3077 0.5580
vn 0.7707 0.3077 -0.5580
vn -0.9287 -0.3708 -0.0000
vn -0.0000 -0.4829 0.8757
vn 0.9287 -0.3708 -0.0000
vn -0.0000 -0.4829 -0.8757
vn -0.9287 0.3708 -0.0000
vn -0.0000 0.4829 0.8757
vn 0.9287 0.3708 -0.0000
vn -0.0000 0.4829 -0.8757
vn -0.8490 -0.0000 -0.5284
vn 0.8490 -0.0000 -0.5284
vn -0.8490 -0.0000 0.5284
vn 0.8490 -0.0000 0.5284
vn 1.0000 -0.0000 -0.0000
vt 0.005037 0.000000
vt 0.994963 0.000000
vt 1.000000 0.005037
vt 1.000000 0.994963
vt 1.000000 0.005037
vt 0.994962 1.000000
vt 0.005037 1.000000
vt 0.994962 1.000000
vt 0.005037 0.005037
vt 0.005037 0.994963
vt 0.994963 0.994963
vt 0.994963 0.005037
vt 0.000000 0.005037
vt 0.000000 0.994962
s 0
f 123/71/131 124/72/131 139/72/131 137/71/131
f 126/73/132 130/74/132 142/74/132 140/75/132
f 132/76/133 128/77/133 135/77/133 143/78/133
f 122/79/134 129/80/134 131/81/134 125/82/134
f 138/79/135 141/82/135 144/81/135 134/80/135
f 121/83/136 122/79/136 123/71/136
f 124/72/137 125/82/137 126/73/137
f 127/84/138 128/77/138 129/80/138
f 130/74/139 131/81/139 132/76/139
f 133/84/140 134/80/140 135/77/140
f 136/83/141 137/71/141 138/79/141
f 139/72/142 140/75/142 141/82/142
f 142/74/143 143/78/143 144/81/143
f 129/80/144 122/79/144 121/83/144 127/84/144
f 122/79/145 125/82/145 124/72/145 123/71/145
f 125/82/146 131/81/146 130/74/146 126/73/146
f 131/81/147 129/80/147 128/77/147 132/76/147
f 133/84/148 136/83/148 138/79/148 134/80/148
f 137/71/149 139/72/149 141/82/149 138/79/149
f 140/75/150 142/74/150 144/81/150 141/82/150
f 143/78/151 135/77/151 134/80/151 144/81/151
f 126/73/152 140/75/152 139/72/152 124/72/152
f 136/83/153 121/83/153 123/71/153 137/71/153
f 132/76/154 143/78/154 142/74/154 130/74/154
f 135/77/155 128/77/155 127/84/155 133/84/155
f 127/84/156 121/83/156 136/83/156 133/84/156
