# Blender 4.2.1 LTS
# www.blender.org
mtllib mattress.mtl
o matress
v -0.906094 0.430256 0.228110
v -0.866094 0.447150 0.228110
v -0.866094 0.430256 0.267676
v -0.894378 0.442202 0.228110
v -0.889188 0.440010 0.250953
v -0.866094 0.442202 0.256087
v -0.894378 0.430256 0.256087
v 0.375676 0.430256 0.267676
v 0.375676 0.447150 0.228110
v 0.415676 0.430256 0.228110
v 0.375676 0.442202 0.256087
v 0.398770 0.440010 0.250953
v 0.403961 0.442202 0.228110
v 0.403961 0.430256 0.256087
v -0.906094 0.430256 -0.503237
v -0.866094 0.430256 -0.542803
v -0.866094 0.447150 -0.503237
v -0.894378 0.430256 -0.531215
v -0.889188 0.440010 -0.526081
v -0.866094 0.442202 -0.531215
v -0.894378 0.442202 -0.503237
v 0.415676 0.430256 -0.503237
v 0.375676 0.447150 -0.503237
v 0.375676 0.430256 -0.542803
v 0.403961 0.442202 -0.503237
v 0.398771 0.440010 -0.526081
v 0.375677 0.442202 -0.531214
v 0.403961 0.430256 -0.531214
v -0.906094 0.382037 -0.503237
v -0.866094 0.365143 -0.503237
v -0.866094 0.382037 -0.542803
v -0.894378 0.370091 -0.503237
v -0.889188 0.372283 -0.526081
v -0.866094 0.370091 -0.531214
v -0.894378 0.382037 -0.531214
v -0.906094 0.382037 0.228110
v -0.866094 0.382037 0.267676
v -0.866094 0.365143 0.228110
v -0.894378 0.382037 0.256087
v -0.889188 0.372283 0.250953
v -0.866094 0.370091 0.256087
v -0.894378 0.370091 0.228110
v 0.375676 0.382037 0.267676
v 0.415676 0.382037 0.228110
v 0.375676 0.365143 0.228110
v 0.403961 0.382037 0.256087
v 0.398771 0.372283 0.250953
v 0.403961 0.370091 0.228110
v 0.375677 0.370091 0.256087
v 0.415676 0.382037 -0.503237
v 0.375676 0.382037 -0.542803
v 0.375676 0.365143 -0.503237
v 0.403961 0.382037 -0.531215
v 0.398771 0.372283 -0.526081
v 0.375677 0.370091 -0.531215
v 0.403961 0.370091 -0.503237
vn -0.0000 -0.0000 -1.0000
vn -0.0000 -0.0000 1.0000
vn -0.0000 -1.0000 -0.0000
vn -0.0000 1.0000 -0.0000
vn -1.0000 -0.0000 -0.0000
vn 0.7278 -0.6307 -0.2693
vn 0.1510 -0.9767 -0.1526
vn 0.2650 -0.6276 -0.7321
vn -0.2650 -0.6276 -0.7321
vn -0.1510 -0.9767 -0.1526
vn -0.7278 -0.6307 -0.2693
vn 0.7278 -0.6307 0.2693
vn 0.2650 -0.6275 0.7321
vn 0.1510 -0.9767 0.1526
vn -0.7278 -0.6307 0.2693
vn -0.1510 -0.9767 0.1526
vn -0.2650 -0.6276 0.7321
vn 0.7278 0.6307 0.2693
vn 0.1510 0.9767 0.1526
vn 0.2650 0.6276 0.7321
vn 0.7278 0.6307 -0.2693
vn 0.2650 0.6276 -0.7321
vn 0.1510 0.9767 -0.1526
vn -0.2650 0.6276 -0.7321
vn -0.7278 0.6307 -0.2693
vn -0.1510 0.9767 -0.1526
vn -0.7278 0.6307 0.2693
vn -0.2650 0.6275 0.7321
vn -0.1510 0.9767 0.1526
vn 0.1723 -0.9850 -0.0000
vn 0.7140 -0.7002 -0.0000
vn -0.0000 -0.9847 -0.1742
vn -0.0000 -0.6963 -0.7178
vn -0.1723 -0.9850 -0.0000
vn -0.7140 -0.7002 -0.0000
vn -0.0000 -0.9847 0.1742
vn -0.0000 -0.6963 0.7178
vn 0.7140 0.7002 -0.0000
vn 0.1723 0.9850 -0.0000
vn -0.0000 0.6963 -0.7178
vn -0.0000 0.9847 -0.1742
vn -0.7140 0.7002 -0.0000
vn -0.1723 0.9850 -0.0000
vn -0.0000 0.6963 0.7178
vn -0.0000 0.9847 0.1742
vn -0.3791 -0.0000 0.9253
vn -0.9224 -0.0000 0.3863
vn -0.3791 -0.0000 -0.9253
vn -0.9224 -0.0000 -0.3863
vn 0.3791 -0.0000 -0.9253
vn 0.9224 -0.0000 -0.3863
vn 0.3791 -0.0000 0.9253
vn 0.9224 -0.0000 0.3863
vn 1.0000 -0.0000 -0.0000
vt 0.030262 0.000000
vt 0.969738 0.000000
vt 0.030262 0.000000
vt 0.969737 1.000000
vt 0.030262 1.000000
vt 0.969738 1.000000
vt 0.030262 0.048818
vt 0.030262 0.951182
vt 0.969738 0.951182
vt 0.969737 0.048818
vt 0.969738 0.048818
vt 1.000000 0.048818
vt 1.000000 0.951182
vt 1.000000 0.951182
vt 0.000000 0.048818
vt 0.000000 0.048818
vt 0.004263 0.006878
vt 0.000000 0.000000
vt 0.030263 0.000000
vt 0.000000 0.048818
vt 0.969738 0.000000
vt 0.995737 0.006878
vt 1.000000 0.000000
vt 1.000000 0.048818
vt 1.000000 0.048818
vt 0.000000 0.951182
vt 0.000000 1.000000
vt 0.004263 0.993122
vt 0.000000 0.951182
vt 0.030263 1.000000
vt 0.030263 1.000000
vt 0.995737 0.993122
vt 1.000000 1.000000
vt 0.969738 1.000000
vt 0.000000 0.951182
vt 0.995737 0.993122
vt 0.000000 0.048818
vt 0.030262 0.000000
vt 1.000000 0.048818
vt 0.030263 1.000000
s 0
f 3/1/1 8/2/1 43/2/1 37/3/1
f 24/4/2 16/5/2 31/5/2 51/6/2
f 2/7/3 17/8/3 23/9/3 9/10/3
f 38/7/4 45/11/4 52/9/4 30/8/4
f 10/12/5 22/13/5 50/14/5 44/12/5
f 1/15/6 4/16/6 5/17/6 7/18/6
f 2/7/7 6/19/7 5/17/7 4/20/7
f 3/1/8 7/18/8 5/17/8 6/1/8
f 8/2/9 11/21/9 12/22/9 14/23/9
f 9/10/10 13/24/10 12/22/10 11/21/10
f 10/12/11 14/23/11 12/22/11 13/25/11
f 15/26/12 18/27/12 19/28/12 21/29/12
f 16/5/13 20/30/13 19/28/13 18/27/13
f 17/8/14 21/29/14 19/28/14 20/31/14
f 22/13/15 25/14/15 26/32/15 28/33/15
f 23/9/16 27/34/16 26/32/16 25/14/16
f 24/4/17 28/33/17 26/32/17 27/34/17
f 29/26/18 32/29/18 33/28/18 35/27/18
f 30/8/19 34/30/19 33/28/19 32/35/19
f 31/5/20 35/27/20 33/28/20 34/31/20
f 36/15/21 39/18/21 40/17/21 42/20/21
f 37/3/22 41/19/22 40/17/22 39/18/22
f 38/7/23 42/16/23 40/17/23 41/1/23
f 43/2/24 46/23/24 47/22/24 49/21/24
f 44/12/25 48/24/25 47/22/25 46/23/25
f 45/11/26 49/21/26 47/22/26 48/25/26
f 50/14/27 53/33/27 54/36/27 56/14/27
f 51/6/28 55/34/28 54/36/28 53/33/28
f 52/9/29 56/14/29 54/36/29 55/34/29
f 17/8/30 2/7/30 4/37/30 21/29/30
f 21/29/31 4/37/31 1/15/31 15/26/31
f 2/7/32 9/10/32 11/21/32 6/38/32
f 6/38/33 11/21/33 8/2/33 3/1/33
f 9/10/34 23/9/34 25/14/34 13/39/34
f 13/39/35 25/14/35 22/13/35 10/12/35
f 23/9/36 17/8/36 20/40/36 27/34/36
f 27/34/37 20/40/37 16/5/37 24/4/37
f 29/26/38 36/15/38 42/37/38 32/29/38
f 32/29/39 42/37/39 38/7/39 30/8/39
f 37/3/40 43/2/40 49/21/40 41/38/40
f 41/38/41 49/21/41 45/11/41 38/7/41
f 44/12/42 50/14/42 56/14/42 48/39/42
f 48/39/43 56/14/43 52/9/43 45/11/43
f 51/6/44 31/5/44 34/40/44 55/34/44
f 55/34/45 34/40/45 30/8/45 52/9/45
f 24/4/46 51/6/46 53/33/46 28/33/46
f 28/33/47 53/33/47 50/14/47 22/13/47
f 43/2/48 8/2/48 14/23/48 46/23/48
f 46/23/49 14/23/49 10/12/49 44/12/49
f 3/1/50 37/3/50 39/18/50 7/18/50
f 7/18/51 39/18/51 36/15/51 1/15/51
f 31/5/52 16/5/52 18/27/52 35/27/52
f 35/27/53 18/27/53 15/26/53 29/26/53
f 15/26/54 1/15/54 36/15/54 29/26/54
